<svg width="766" height="766" viewBox="0 0 766 766" fill="none" xmlns="http://www.w3.org/2000/svg">
    <g clip-path="url(#clip0_7_2)" style="opacity: 60%">
        <path fill-rule="evenodd" clip-rule="evenodd"
            d="M561.45 120.608L562.79 121.948C572.785 131.943 572.785 148.147 562.79 158.142C552.795 168.137 536.591 168.137 526.596 158.142C487.934 119.48 460.719 92.3421 437.404 74.5532C414.679 57.215 398.692 51.1861 382.834 51.186M382.834 51.186C363.891 51.186 352.808 54.3191 337.572 65.0283C319.91 77.4419 298.261 98.9517 259.304 137.909C249.309 147.904 233.104 147.904 223.109 137.91C213.115 127.915 213.115 111.711 223.11 101.716C223.869 100.956 224.624 100.201 225.373 99.4517C261.487 63.3354 286.366 38.4544 308.138 23.1517C332.788 5.82595 354.369 0.000164541 382.833 0C414.383 0.00016589 441.174 13.0467 468.452 33.8591C494.822 53.9785 524.437 83.5947 561.45 120.608M607.526 202.878C617.52 192.883 633.725 192.883 643.72 202.878L643.733 202.892C650.788 209.946 657.548 216.706 663.986 223.182C673.951 233.206 673.904 249.41 663.88 259.376C653.856 269.341 637.652 269.294 627.687 259.27C621.306 252.853 614.596 246.142 607.526 239.072C597.531 229.077 597.531 212.872 607.526 202.878ZM688.26 284.176C699.185 275.208 715.312 276.794 724.28 287.719C749.428 318.354 765.666 347.632 765.667 382.833C765.667 411.298 759.842 432.879 742.516 457.529C727.213 479.302 702.332 504.181 666.216 540.294L663.952 542.558C653.957 552.553 637.752 552.553 627.758 542.558C617.763 532.564 617.763 516.359 627.758 506.364C666.716 467.405 688.226 445.757 700.639 428.095C711.348 412.859 714.482 401.777 714.481 382.834C714.481 365.173 707.003 347.345 684.717 320.197C675.749 309.271 677.335 293.145 688.26 284.176ZM299.046 192.066C355.236 187.904 435.716 197.199 502.092 263.575C512.087 273.57 512.087 289.774 502.093 299.769C492.098 309.764 475.893 309.763 465.899 299.769C413.822 247.692 350.468 239.583 302.827 243.111C288.969 244.137 282.709 244.761 277.29 246.592C272.965 248.053 267.779 250.828 259.303 259.304C250.828 267.779 248.052 272.966 246.591 277.291C244.759 282.71 244.137 288.969 243.11 302.828C239.582 350.469 247.691 413.822 299.768 465.899C351.845 517.976 415.198 526.085 462.84 522.558C476.698 521.531 482.958 520.908 488.377 519.077C492.701 517.615 497.888 514.84 506.364 506.364C514.839 497.889 517.614 492.702 519.076 488.377C520.908 482.958 521.53 476.698 522.556 462.841C524.141 441.438 523.358 416.721 517.273 391.331C513.979 377.585 522.451 363.772 536.197 360.477C549.942 357.183 563.755 365.656 567.049 379.401C574.636 411.054 575.482 441.238 573.603 466.621V466.622C573.564 467.143 573.525 467.666 573.487 468.191C572.626 479.898 571.696 492.55 567.567 504.766C562.883 518.625 554.812 530.303 542.557 542.558C530.302 554.813 518.624 562.884 504.766 567.568C492.549 571.697 479.897 572.627 468.19 573.488C467.665 573.527 467.142 573.565 466.621 573.603H466.62C410.43 577.764 329.95 568.469 263.574 502.093C197.198 435.717 187.903 355.239 192.065 299.048C192.103 298.528 192.141 298.005 192.18 297.482C193.041 285.773 193.97 273.119 198.1 260.902C202.783 247.044 210.855 235.365 223.109 223.11C235.364 210.855 247.043 202.784 260.901 198.1C273.119 193.971 285.773 193.041 297.481 192.181C298.005 192.142 298.527 192.104 299.046 192.066ZM405.201 360.466C392.848 348.113 372.819 348.113 360.466 360.466C348.112 372.82 348.112 392.849 360.466 405.202C372.819 417.556 392.848 417.556 405.201 405.202C417.555 392.849 417.555 372.82 405.201 360.466ZM324.271 324.272C356.614 291.929 409.053 291.929 441.395 324.272C473.738 356.615 473.738 409.053 441.395 441.396C409.052 473.739 356.614 473.739 324.271 441.396C291.928 409.053 291.928 356.615 324.271 324.272ZM137.909 223.11C147.904 233.105 147.904 249.309 137.909 259.304C98.9508 298.262 77.4417 319.91 65.0275 337.573C54.3183 352.809 51.1853 363.891 51.186 382.833L51.186 382.834C51.1857 400.495 58.663 418.322 80.9498 445.472C89.9182 456.397 88.3317 472.524 77.406 481.492C66.4813 490.46 50.3548 488.874 41.3864 477.948C16.2401 447.315 -0.000628428 418.036 8.90802e-05 382.834L6.60119e-08 382.833M6.60119e-08 382.833C-0.000716093 354.369 5.82563 332.788 23.1509 308.139C38.4536 286.367 63.3346 261.488 99.4509 225.374L101.715 223.11C111.71 213.115 127.914 213.116 137.909 223.11M542.557 627.759C552.552 637.753 552.552 653.958 542.557 663.953L540.294 666.217C504.18 702.333 479.301 727.214 457.528 742.517C432.879 759.842 411.298 765.668 382.835 765.668H382.832M382.832 765.668C351.283 765.668 324.492 752.621 297.215 731.809C270.845 711.69 241.229 682.073 204.217 645.06L202.877 643.721C192.882 633.726 192.882 617.521 202.877 607.526C212.871 597.532 229.076 597.531 239.071 607.526C277.733 646.188 304.948 673.326 328.263 691.115C350.988 708.454 366.976 714.482 382.832 714.481H382.834C401.776 714.482 412.858 711.349 428.095 700.64C445.757 688.226 467.405 666.716 506.363 627.759C516.358 617.764 532.563 617.764 542.557 627.759M101.785 506.295C111.807 496.329 128.012 496.374 137.978 506.397C144.36 512.814 151.071 519.526 158.141 526.596C168.136 536.591 168.136 552.796 158.141 562.791C148.146 572.786 131.942 572.786 121.947 562.791C114.888 555.731 108.123 548.967 101.682 542.489C91.7157 532.466 91.7609 516.261 101.785 506.295Z"
            fill="#23252C" />
    </g>
    <defs>
        <clipPath id="clip0_7_2">
            <rect width="765.667" height="765.668" fill="white" />
        </clipPath>
    </defs>
</svg>