<?xml version="1.0" standalone="no"?>
<!DOCTYPE svg PUBLIC "-//W3C//DTD SVG 20010904//EN"
 "http://www.w3.org/TR/2001/REC-SVG-20010904/DTD/svg10.dtd">
<svg version="1.0" xmlns="http://www.w3.org/2000/svg"
 width="512.000000pt" height="512.000000pt" viewBox="0 0 512.000000 512.000000"
 preserveAspectRatio="xMidYMid meet">

<g transform="translate(0.000000,512.000000) scale(0.100000,-0.100000)"
fill="#23252C" stroke="none">
<path d="M1499 4876 c-165 -46 -296 -189 -359 -391 -64 -211 -66 -532 -5 -875
8 -47 15 -90 15 -97 0 -6 -40 -21 -89 -32 -420 -99 -731 -247 -902 -429 -274
-291 -188 -648 225 -923 119 -80 198 -119 240 -119 47 0 96 48 96 95 0 59 -17
79 -121 140 -256 151 -382 300 -383 450 0 181 214 361 584 490 105 36 360 105
391 105 12 0 20 -15 28 -47 20 -83 99 -326 145 -448 l45 -117 -109 -221 c-352
-719 -491 -1346 -383 -1727 73 -259 285 -403 549 -372 116 13 281 68 404 134
137 73 285 174 298 203 22 47 15 84 -22 121 -52 52 -81 47 -201 -32 -126 -83
-298 -167 -395 -194 -90 -24 -199 -26 -263 -4 -133 45 -209 243 -193 503 21
335 147 757 356 1199 l63 133 108 -218 c557 -1132 1320 -1938 1864 -1970 189
-12 330 56 428 205 57 86 90 171 118 302 29 136 31 431 5 615 -66 470 -230
985 -476 1498 -31 66 -50 91 -73 103 -61 32 -140 -5 -153 -72 -5 -28 8 -65 79
-221 344 -760 493 -1445 410 -1888 -43 -229 -165 -350 -334 -331 -409 47
-1023 671 -1512 1536 -117 207 -327 645 -327 681 0 29 250 420 403 632 l70 97
186 0 c674 0 1392 -122 1895 -322 426 -169 700 -398 700 -583 0 -146 -160
-305 -437 -434 -121 -57 -143 -79 -134 -142 6 -48 29 -76 71 -87 42 -12 83 1
207 62 311 155 486 350 506 566 7 77 -12 158 -60 254 -33 65 -62 101 -142 181
-55 55 -138 126 -185 157 -482 320 -1321 530 -2212 555 -120 3 -218 8 -218 11
0 6 109 129 223 252 410 439 869 740 1127 740 143 0 240 -87 285 -257 19 -70
22 -285 5 -388 -6 -38 -14 -100 -17 -137 -5 -65 -5 -68 25 -97 54 -55 145 -37
172 33 44 116 59 478 27 621 -52 227 -192 384 -378 425 -93 21 -246 8 -360
-29 -380 -123 -872 -529 -1326 -1092 l-62 -76 -178 -12 c-98 -7 -245 -21 -327
-31 -82 -11 -151 -19 -152 -17 -1 1 -12 58 -23 126 -62 365 -50 648 33 827 72
152 188 210 346 170 91 -22 247 -102 365 -185 79 -56 108 -71 136 -71 73 0
124 75 96 142 -17 40 -106 109 -247 193 -211 124 -420 172 -571 131z m344
-1508 c-4 -7 -62 -94 -128 -193 -66 -99 -131 -198 -144 -220 l-24 -40 -39 115
c-68 202 -92 292 -78 300 12 7 139 24 300 39 127 12 122 12 113 -1z"/>
<path d="M2500 2861 c-96 -31 -177 -108 -206 -193 -22 -67 -16 -187 13 -243
116 -223 432 -217 544 10 34 71 34 189 0 259 -51 104 -145 166 -260 172 -36 2
-77 0 -91 -5z"/>
</g>
</svg>
