<svg xmlns="http://www.w3.org/2000/svg" version="1.1" xmlns:xlink="http://www.w3.org/1999/xlink" xmlns:svgjs="http://svgjs.com/svgjs" width="180" height="180" preserveAspectRatio="none" viewBox="0 0 180 180">
<g mask="url(&quot;#SvgjsMask1146&quot;)" fill="none"><rect width="180" height="180" x="0" y="0" fill="#23252C"></rect><use xlink:href="#SvgjsPath1147" x="30" y="30" stroke="#494b57"></use><use xlink:href="#SvgjsPath1148" x="30" y="90" stroke="#494b57"></use><use xlink:href="#SvgjsPath1148" x="30" y="150" stroke="#494b57"></use><use xlink:href="#SvgjsPath1149" x="90" y="30" stroke="#494b57"></use><use xlink:href="#SvgjsPath1147" x="90" y="90" stroke="#494b57e"></use><use xlink:href="#SvgjsPath1148" x="90" y="150" stroke="#494b57"></use><use xlink:href="#SvgjsPath1148" x="150" y="30" stroke="#494b57"></use><use xlink:href="#SvgjsPath1148" x="150" y="90" stroke="#494b57"></use><use xlink:href="#SvgjsPath1150" x="150" y="150" stroke="#494b57"></use></g><defs><mask id="SvgjsMask1146"><rect width="180" height="180" fill="#ffffff"></rect></mask><path d="M-1 0 a1 1 0 1 0 2 0 a1 1 0 1 0 -2 0z" id="SvgjsPath1147"></path><path d="M-3 0 a3 3 0 1 0 6 0 a3 3 0 1 0 -6 0z" id="SvgjsPath1150"></path><path d="M-5 0 a5 5 0 1 0 10 0 a5 5 0 1 0 -10 0z" id="SvgjsPath1148"></path><path d="M2 -2 L-2 2z"></path><path d="M6 -6 L-6 6z" id="SvgjsPath1149"></path><path d="M30 -30 L-30 30z"></path></defs></svg>