<?xml version="1.0" standalone="no"?>
<!DOCTYPE svg PUBLIC "-//W3C//DTD SVG 20010904//EN"
 "http://www.w3.org/TR/2001/REC-SVG-20010904/DTD/svg10.dtd">
<svg version="1.0" xmlns="http://www.w3.org/2000/svg"
 width="512.000000pt" height="512.000000pt" viewBox="0 0 512.000000 512.000000"
 preserveAspectRatio="xMidYMid meet">

<g transform="translate(0.000000,512.000000) scale(0.100000,-0.100000)"
fill="#000000" stroke="none">
<path d="M2580 5091 c-167 -54 -310 -179 -310 -271 0 -121 173 -152 230 -40
25 48 25 62 2 83 -32 29 -142 13 -142 -19 0 -23 29 -28 50 -9 28 25 50 12 50
-29 0 -27 -6 -40 -26 -53 -23 -15 -30 -15 -67 -2 -124 43 -50 181 148 275 161
77 272 67 321 -29 34 -64 -1 -177 -98 -319 -21 -32 -42 -58 -46 -58 -4 0 -54
10 -112 21 -139 28 -384 31 -512 6 -182 -36 -386 -126 -522 -229 -38 -29 -75
-57 -82 -62 -9 -7 -33 10 -86 60 -101 96 -229 170 -353 205 l-30 8 25 -20
c160 -128 224 -186 282 -254 37 -44 68 -82 68 -85 0 -3 -14 -20 -32 -39 l-31
-34 -45 52 c-51 59 -139 125 -227 169 -64 31 -245 95 -252 88 -2 -2 25 -20 61
-40 35 -20 100 -62 143 -95 78 -58 213 -190 213 -209 0 -5 -37 -26 -83 -46
-45 -20 -105 -52 -133 -72 l-51 -34 -67 44 c-64 44 -177 87 -261 100 -34 5
-37 4 -21 -7 82 -54 197 -139 234 -172 l45 -41 -36 -48 c-48 -62 -101 -174
-123 -258 l-18 -67 -45 -11 c-76 -19 -178 -79 -226 -132 -37 -41 -62 -89 -81
-155 -2 -7 -14 -13 -27 -13 -14 0 -36 -9 -51 -21 -37 -29 -37 -95 0 -133 27
-27 79 -46 126 -46 15 0 30 -5 33 -10 12 -19 84 -50 115 -50 20 0 40 9 57 26
22 22 25 32 20 71 -7 69 -67 121 -174 153 l-41 13 13 45 c24 78 142 173 245
197 l25 6 -1 -178 c0 -154 -3 -187 -22 -247 -12 -37 -22 -76 -22 -85 0 -9 -34
-50 -75 -91 -104 -102 -145 -184 -145 -286 0 -84 20 -145 70 -220 37 -53 213
-234 229 -234 5 0 17 -22 26 -49 l16 -48 -69 -69 c-90 -90 -115 -151 -115
-279 -1 -138 33 -234 112 -319 128 -136 332 -155 460 -40 l46 42 90 0 c75 0
102 4 159 27 37 15 70 24 73 21 3 -3 2 -21 -1 -41 -6 -28 -28 -58 -89 -122
-109 -113 -159 -148 -214 -147 -49 1 -57 -15 -21 -40 55 -39 127 -1 222 114
37 44 68 80 71 80 18 0 -62 -163 -122 -249 -33 -47 -41 -67 -33 -75 25 -25
134 151 186 301 19 55 44 107 59 123 l26 27 61 -17 c34 -9 64 -22 66 -28 9
-27 -379 -492 -573 -688 -138 -139 -204 -190 -231 -180 -25 10 -12 81 36 188
22 50 33 85 25 78 -28 -23 -107 -160 -137 -236 -48 -125 -28 -176 53 -136 159
78 443 368 744 761 42 55 80 101 83 101 3 0 2 -63 -2 -141 l-7 -141 -88 -117
c-138 -182 -265 -335 -374 -448 -55 -56 -95 -103 -90 -103 58 0 320 278 503
534 31 44 35 46 38 25 11 -72 -37 -441 -78 -604 -32 -128 -66 -201 -110 -239
-29 -24 -30 -26 -10 -26 37 0 78 31 104 80 61 112 120 432 145 780 l8 115 98
140 c54 77 100 142 102 144 2 3 20 -11 41 -31 60 -58 106 -76 195 -77 85 -1
147 21 167 58 9 18 14 17 92 -23 46 -24 93 -45 104 -48 31 -8 44 -73 51 -244
5 -121 3 -151 -16 -223 -43 -172 -142 -280 -311 -339 l-65 -23 50 7 c185 25
314 146 362 341 19 78 22 327 6 405 l-10 47 103 -6 c129 -7 213 12 272 63 55
47 72 88 72 173 0 83 -22 154 -74 239 l-35 57 52 53 c46 48 56 53 85 48 88
-14 214 -120 228 -192 9 -50 -1 -101 -31 -145 -18 -28 -21 -39 -11 -39 22 0
68 80 74 126 8 73 -5 109 -59 168 -34 37 -73 66 -117 88 -37 17 -69 33 -71 34
-2 2 17 29 41 61 25 32 57 79 72 105 15 25 33 51 39 57 10 7 63 -47 211 -215
110 -123 205 -224 213 -224 42 0 15 41 -170 262 -192 229 -195 233 -174 248
12 8 41 30 66 48 53 41 74 36 120 -31 32 -48 81 -179 81 -220 0 -36 10 -57 26
-57 8 0 14 10 14 23 0 38 -37 172 -59 216 -12 22 -21 43 -21 46 0 3 35 -12 78
-34 116 -58 230 -91 315 -91 87 0 132 20 166 73 22 33 29 37 65 37 67 0 232
28 350 59 109 28 319 101 312 108 -2 2 -43 -5 -92 -16 -233 -52 -613 -79 -842
-61 -159 12 -372 47 -388 63 -3 2 6 25 19 50 14 25 29 58 35 74 9 29 13 30 87
36 43 4 122 7 176 7 53 0 166 4 251 10 329 22 448 56 448 130 0 57 -78 83
-136 45 -33 -21 -26 -39 17 -46 l34 -6 -26 -10 c-57 -25 -296 -46 -641 -59
l-178 -6 0 86 c0 85 0 86 25 86 36 0 147 43 211 81 70 42 180 157 218 228 45
83 67 181 73 322 6 127 6 127 53 220 57 114 72 121 130 60 22 -23 42 -41 45
-41 16 0 1 35 -30 69 -27 30 -44 40 -74 43 -37 3 -42 0 -88 -55 l-48 -59 -8
36 c-24 100 -105 112 -220 33 -16 -10 -21 -8 -39 18 -28 39 -161 172 -212 212
l-39 30 59 40 c32 22 83 62 113 89 l54 48 23 -28 c13 -15 24 -34 24 -42 0 -8
7 -14 15 -14 30 0 8 77 -29 102 -6 4 3 30 21 65 62 118 66 173 13 173 -37 0
-80 -16 -80 -30 0 -6 16 -10 38 -8 37 3 37 3 36 -35 -1 -22 -13 -56 -30 -84
l-29 -46 -88 -1 -89 -1 38 33 c26 22 34 36 27 43 -7 7 -31 -9 -77 -51 -36 -33
-72 -60 -78 -60 -7 0 -46 -16 -88 -35 l-75 -36 -58 25 c-31 14 -57 28 -57 30
0 2 26 23 58 47 111 83 261 203 257 207 -6 6 -266 -122 -345 -171 l-75 -46 -8
67 c-4 37 -8 76 -10 88 -1 16 87 101 385 368 363 325 451 407 367 345 -69 -52
-514 -375 -525 -382 -7 -4 -1 24 12 63 27 77 37 200 17 207 -7 3 -14 -16 -18
-54 -9 -81 -40 -179 -72 -235 -20 -34 -56 -68 -123 -117 -94 -69 -95 -70 -112
-50 -17 20 -16 22 21 67 121 146 130 315 21 393 -31 22 -75 29 -75 11 0 -6 15
-20 34 -30 59 -29 76 -63 76 -145 -1 -80 -27 -144 -86 -212 l-32 -36 -56 53
c-31 29 -55 58 -55 63 1 6 5 24 8 40 7 30 7 30 -8 -3 -9 -19 -19 -32 -23 -30
-21 9 -188 92 -192 94 -2 2 15 31 38 66 84 128 133 260 118 320 -10 37 -55 88
-94 104 -45 19 -157 17 -223 -5z m-221 -547 c93 -24 178 -72 252 -141 38 -36
69 -70 69 -75 0 -11 -72 -3 -204 23 -69 14 -111 28 -140 48 -76 53 -263 131
-312 131 -8 0 -14 4 -14 9 0 5 26 12 58 16 31 3 64 8 72 10 27 6 162 -7 219
-21z m266 -12 c-3 -3 -11 0 -18 7 -9 10 -8 11 6 5 10 -3 15 -9 12 -12z m155
-43 c36 -17 76 -37 89 -46 l23 -15 -38 -39 c-21 -21 -44 -39 -50 -39 -7 0 -29
22 -49 50 -20 27 -50 61 -67 75 -19 16 -28 31 -24 41 7 18 25 14 116 -27z
m-865 -78 l40 -7 -48 -22 c-26 -12 -61 -31 -78 -43 -17 -12 -32 -20 -33 -18
-2 2 -7 25 -10 52 l-7 47 48 -1 c26 0 66 -4 88 -8z m1067 -58 c71 -77 75 -89
42 -124 -15 -16 -32 -29 -37 -29 -13 0 -150 82 -164 97 -9 12 -2 24 33 61 24
25 44 49 44 54 0 16 35 -10 82 -59z m-1293 -23 c1 -24 -1 -25 -76 -27 -43 -1
-72 1 -67 6 5 5 36 28 69 51 59 41 60 41 67 18 3 -13 6 -34 7 -48z m506 -17
l59 -37 -55 -14 c-29 -7 -89 -29 -131 -49 l-77 -36 -53 35 c-29 19 -61 38 -70
41 -29 10 -21 22 36 51 72 37 101 44 171 45 53 1 68 -3 120 -36z m328 -2 c15
-6 12 -9 -16 -18 -32 -10 -38 -8 -59 14 l-23 25 40 -8 c22 -4 48 -10 58 -13z
m217 -81 c0 -13 -11 -13 -30 0 -12 8 -11 10 8 10 12 0 22 -4 22 -10z m-400
-41 c7 -11 10 -22 8 -23 -2 -1 -36 -8 -77 -14 -40 -7 -102 -24 -137 -38 -65
-26 -84 -25 -84 2 0 17 67 49 155 75 84 25 122 24 135 -2z m270 0 c18 -6 12
-7 -24 -6 -30 1 -51 7 -54 15 -4 13 15 11 78 -9z m-999 -23 l-33 -34 -39 16
c-21 8 -39 19 -39 23 0 12 57 27 104 28 l40 1 -33 -34z m246 -21 c23 -14 43
-28 43 -30 0 -7 -105 -104 -108 -100 -6 6 10 155 16 155 3 0 25 -11 49 -25z
m-166 -43 c-6 -42 -6 -42 -29 -26 l-24 16 28 29 c15 16 28 28 29 26 2 -1 0
-21 -4 -45z m742 -57 c15 -31 27 -57 27 -59 0 -2 -46 -6 -102 -10 -57 -4 -130
-9 -164 -13 -60 -5 -61 -5 -73 25 -7 17 -10 35 -7 41 12 19 194 68 261 70 28
1 34 -5 58 -54z m277 -5 c0 -59 0 -60 -40 -80 -21 -11 -41 -20 -44 -20 -2 0
-7 19 -11 42 -4 24 -14 60 -21 80 l-13 38 64 0 65 0 0 -60z m-1390 -85 c1 -22
4 -31 7 -20 2 11 10 36 16 55 11 34 12 33 18 -45 3 -44 9 -91 13 -105 6 -24 2
-27 -75 -57 l-82 -31 6 78 c5 75 27 143 65 200 l16 25 7 -30 c4 -16 8 -48 9
-70z m152 83 l39 -11 -8 -46 c-4 -25 -7 -67 -6 -92 2 -43 1 -47 -24 -54 -33
-8 -42 2 -54 56 -10 42 -3 159 8 159 3 0 23 -5 45 -12z m-307 -15 c-29 -67
-45 -156 -45 -244 0 -84 -3 -98 -21 -115 -25 -23 -32 -14 -49 67 -24 112 -2
208 63 277 34 35 64 44 52 15z m2634 -2 c10 -6 -2 -21 -48 -59 -79 -66 -146
-112 -163 -112 -7 0 -21 7 -31 15 -18 13 -17 16 18 70 41 61 56 72 118 85 57
11 89 11 106 1z m-2165 -41 l46 -21 -6 -42 c-9 -66 -10 -67 -59 -67 -54 0 -65
27 -14 32 19 2 38 12 46 25 14 21 13 21 -26 16 -32 -4 -42 -2 -47 11 -6 15 2
66 10 66 2 0 24 -9 50 -20z m1909 -44 c-27 -44 -27 -44 -55 -30 -15 8 -28 17
-28 19 0 5 91 54 102 55 4 0 -5 -20 -19 -44z m-1519 18 c8 -20 9 -20 -33 -28
l-35 -6 24 25 c28 29 36 31 44 9z m453 -19 c3 -9 3 -18 0 -21 -3 -3 -52 1
-108 8 -115 14 -103 25 29 27 57 1 74 -2 79 -14z m858 -65 c132 -63 243 -134
325 -208 l54 -48 -33 -13 c-31 -14 -32 -13 -99 51 -37 35 -96 84 -130 107 -65
44 -257 141 -279 141 -14 0 -18 22 -6 33 10 11 36 1 168 -63z m-2387 -27 c11
-16 22 -52 26 -81 4 -30 18 -83 31 -120 17 -47 21 -71 14 -84 -12 -22 -5 -21
-76 -3 -31 8 -82 15 -111 15 l-54 0 7 37 c13 70 113 263 137 263 4 0 15 -12
26 -27z m840 -30 c-27 -29 -32 -24 -24 23 7 35 8 35 27 18 19 -17 19 -18 -3
-41z m1555 -105 c78 -45 176 -124 206 -166 l21 -29 -27 -62 -27 -62 -36 71
c-46 87 -111 163 -187 220 -144 108 -115 124 50 28z m-1920 -15 c-34 -21 -78
-51 -97 -67 -35 -27 -37 -28 -61 -12 -14 9 -23 21 -20 27 9 14 61 39 135 65
98 35 114 30 43 -13z m1252 -5 c39 -34 75 -95 75 -128 0 -17 -10 -11 -52 33
-31 31 -73 61 -100 73 -53 21 -59 30 -25 44 40 16 66 11 102 -22z m271 -43
c12 -8 24 -27 27 -42 6 -31 -2 -83 -12 -83 -5 1 -61 69 -99 122 -12 17 -10 18
25 18 21 0 48 -7 59 -15z m-1461 -71 c10 -91 1 -98 -88 -76 -48 12 -67 21 -65
32 4 17 116 110 134 110 7 0 14 -26 19 -66z m2572 -9 c14 -10 26 -35 33 -68
12 -52 12 -52 -38 -145 l-49 -94 -18 71 c-9 38 -30 97 -45 130 l-29 60 29 21
c56 40 86 47 117 25z m-665 -163 c39 -77 42 -89 46 -185 2 -56 0 -118 -5 -137
-9 -34 -11 -35 -55 -33 -25 0 -58 9 -73 19 -27 18 -28 19 -22 103 5 75 0 183
-18 355 l-4 50 45 -45 c27 -26 62 -77 86 -127z m396 118 c12 -16 22 -33 22
-37 -1 -4 -16 -25 -35 -47 l-34 -39 -10 24 c-5 13 -16 42 -25 64 -16 37 -16
40 0 52 29 21 59 15 82 -17z m-2844 -20 l38 -12 -38 -25 c-22 -14 -74 -60
-118 -102 l-78 -76 5 107 c3 58 8 112 12 118 9 14 115 8 179 -10z m2179 -42
c28 -57 24 -251 -4 -207 -5 8 -14 32 -20 54 -6 22 -22 66 -37 99 l-26 59 24
19 c30 24 41 20 63 -24z m1042 11 c-9 -17 -19 -29 -22 -26 -5 5 25 57 33 57 3
0 -3 -14 -11 -31z m-296 -103 c12 -32 25 -94 28 -136 l6 -76 -77 -38 c-42 -21
-79 -36 -82 -34 -2 3 1 31 7 64 6 32 9 91 6 131 l-5 72 40 46 c23 25 44 43 48
38 4 -4 17 -35 29 -67z m-223 -34 c5 -44 2 -51 -45 -117 l-51 -69 0 45 c0 49
31 184 51 221 l12 22 14 -28 c8 -15 16 -48 19 -74z m-2583 9 c3 -13 -6 -30
-28 -51 -18 -18 -46 -60 -62 -94 -26 -56 -28 -70 -28 -176 l1 -116 -48 10
c-47 10 -48 11 -48 45 0 57 27 155 61 225 30 61 121 176 139 176 4 0 10 -9 13
-19z m3044 -104 c-11 -161 -48 -244 -131 -292 -23 -14 -45 -25 -48 -25 -4 0
10 31 29 69 26 51 37 88 42 138 4 37 11 75 16 83 12 20 89 110 94 110 2 0 1
-37 -2 -83z m-1126 17 c38 -55 34 -70 -10 -46 -36 19 -58 60 -47 88 8 20 20
12 57 -42z m-1849 -128 c-31 -49 -55 -121 -69 -204 -7 -49 -9 -52 -26 -40 -14
11 -19 33 -24 104 -8 131 11 192 85 264 l57 55 3 -66 c3 -59 0 -72 -26 -113z
m2114 -14 c-3 -2 -18 1 -34 7 l-29 12 31 53 31 53 3 -60 c2 -33 1 -62 -2 -65z
m389 -7 l-16 -55 -40 0 -41 0 17 28 c10 15 34 51 54 79 33 48 36 50 39 28 2
-14 -4 -50 -13 -80z m-3286 54 c7 -23 10 -43 7 -46 -3 -3 -19 0 -35 7 -38 15
-50 48 -25 67 29 21 40 15 53 -28z m917 -13 c-42 -52 -99 -158 -112 -210 -11
-45 -25 -40 -18 6 9 54 39 132 66 171 17 24 93 87 105 87 2 0 -16 -24 -41 -54z
m-769 8 c42 -25 59 -54 51 -91 -5 -23 -43 -20 -78 6 -27 19 -70 87 -70 110 0
18 42 7 97 -25z m2521 -34 c24 0 25 -1 16 -24 -7 -19 -38 -21 -52 -3 -5 6 -13
23 -17 37 -7 24 -7 24 12 8 11 -10 29 -18 41 -18z m872 -25 c0 -28 -37 -89
-77 -127 -35 -34 -162 -103 -171 -93 -3 2 9 26 26 52 17 26 37 65 45 85 12 29
23 39 54 48 21 6 54 19 73 30 43 24 50 24 50 5z m-655 -143 c-10 -113 -13
-122 -42 -122 -24 0 -25 2 -19 38 3 20 6 72 6 115 l0 78 31 -17 31 -16 -7 -76z
m175 49 c0 -16 -14 -20 -27 -10 -19 17 -16 28 7 22 11 -3 20 -9 20 -12z m190
12 c-1 -13 -38 -58 -44 -53 -2 3 -7 17 -11 33 -7 25 -5 27 24 27 17 0 31 -3
31 -7z m-258 -86 c20 -27 20 -27 -2 -62 -17 -28 -28 -35 -52 -35 l-31 0 7 53
c3 28 6 67 6 86 l0 34 26 -24 c14 -13 35 -36 46 -52z m-1972 46 c-1 -11 -26
-43 -34 -43 -8 0 -8 35 1 43 9 9 33 9 33 0z m-650 -28 c0 -9 -9 -15 -22 -15
-22 1 -23 1 -4 15 25 19 26 19 26 0z m2790 -35 c0 -18 -6 -33 -15 -37 -24 -9
-29 3 -15 37 16 39 30 39 30 0z m425 -81 c-28 -28 -63 -58 -80 -66 -68 -36
-171 -51 -244 -37 -33 7 -43 34 -13 34 25 0 148 42 199 69 23 11 55 21 70 22
15 0 44 6 63 13 56 22 57 19 5 -35z m-3149 -84 c40 -106 40 -112 14 -140 -11
-12 -30 -47 -43 -78 l-23 -58 -17 60 c-30 106 -50 242 -38 254 6 6 11 22 11
35 0 20 4 23 31 20 29 -3 33 -9 65 -93z m164 51 c52 -17 53 -49 1 -75 -22 -12
-45 -21 -51 -21 -11 0 -28 36 -40 88 -8 33 -8 33 23 26 18 -3 48 -12 67 -18z
m-403 -38 c-3 -8 -6 -5 -6 6 -1 11 2 17 5 13 3 -3 4 -12 1 -19z m-10 -70 c-2
-13 -4 -5 -4 17 -1 22 1 32 4 23 2 -10 2 -28 0 -40z m130 -183 c17 -64 17 -72
3 -97 -8 -16 -18 -28 -22 -28 -28 0 -58 220 -43 316 l8 49 17 -85 c10 -47 26
-116 37 -155z m2453 162 c0 -24 -27 -57 -46 -57 -10 0 -11 6 -4 26 6 14 10 39
10 56 0 30 0 31 20 13 11 -10 20 -27 20 -38z m370 24 c10 -25 8 -35 -9 -70
-20 -39 -66 -80 -77 -68 -3 3 3 22 14 44 11 21 25 57 31 81 14 49 24 53 41 13z
m185 0 c30 -7 30 -7 -12 -15 -42 -8 -63 -3 -63 15 0 10 30 10 75 0z m-3192
-151 c4 -35 3 -41 -5 -26 -6 10 -12 48 -14 85 -3 55 -2 59 5 26 5 -22 11 -60
14 -85z m2871 78 c-15 -28 -17 -30 -27 -13 -7 14 -6 21 9 32 29 21 36 15 18
-19z m-115 -72 c19 -78 16 -88 -26 -84 -36 3 -38 5 -41 42 -3 29 2 44 19 62
12 13 26 24 30 24 3 0 12 -20 18 -44z m277 -62 c-6 -23 -11 -24 -81 -24 -41 0
-75 4 -75 8 0 4 19 13 43 19 24 7 58 27 77 46 l35 34 3 -30 c2 -16 1 -40 -2
-53z m-2628 41 c12 -19 22 -36 22 -39 0 -2 -16 -29 -35 -61 -19 -31 -39 -82
-46 -113 -17 -83 -32 -43 -27 72 3 68 10 102 26 134 12 23 26 42 30 42 4 0 17
-16 30 -35z m516 -75 c6 -50 5 -53 -9 -36 -9 12 -15 40 -15 70 1 64 15 43 24
-34z m-139 -5 l50 -11 -34 -12 c-45 -16 -61 -15 -83 5 -24 21 -24 48 0 38 9
-4 39 -13 67 -20z m-228 -106 l89 -91 -70 -69 -70 -69 -53 52 c-47 46 -53 57
-53 94 0 46 19 108 45 148 10 14 18 26 20 26 1 0 42 -41 92 -91z m2213 29 c0
-34 -14 -50 -36 -42 -23 9 -34 23 -34 47 0 13 8 17 35 17 30 0 35 -3 35 -22z
m230 -3 c-5 -13 -21 -43 -36 -65 -20 -29 -32 -39 -45 -35 -64 18 -61 15 -54
53 13 74 11 72 80 72 64 0 64 0 55 -25z m-1962 -7 c-9 -25 -36 -32 -65 -18
l-28 14 40 7 c22 3 44 7 48 8 5 0 7 -4 5 -11z m-788 -42 c0 -8 7 -26 15 -42
19 -36 11 -43 -14 -13 -21 24 -29 85 -11 74 6 -3 10 -12 10 -19z m2068 -78
c-2 -26 -11 -37 -40 -53 -20 -11 -40 -16 -44 -13 -7 7 66 97 79 98 5 0 7 -15
5 -32z m98 -50 c-12 -81 -70 -138 -139 -138 l-38 0 60 50 c33 28 72 70 87 95
14 25 29 44 31 41 3 -3 2 -24 -1 -48z m-1749 9 c-3 -8 -8 -44 -12 -80 -4 -37
-11 -70 -16 -73 -8 -5 -62 19 -87 39 -10 8 0 23 45 69 56 56 81 72 70 45z
m2050 -14 c-3 -10 -8 -31 -12 -48 -6 -29 -41 -75 -56 -75 -11 0 -3 25 29 87
26 51 48 71 39 36z m92 -6 c30 8 26 -4 -9 -22 -29 -15 -30 -15 -46 17 l-17 32
25 -16 c14 -9 35 -14 47 -11z m-268 -93 c-11 -25 -66 -64 -89 -64 -8 0 0 14
17 30 20 21 34 48 42 87 l13 56 14 -42 c11 -33 12 -49 3 -67z m-1563 15 c23
-9 23 -10 -24 -71 -26 -35 -49 -65 -51 -67 -2 -3 -16 8 -32 23 -35 33 -43 68
-24 97 27 37 64 42 131 18z m567 -79 l70 -17 -40 -11 c-80 -23 -146 -7 -184
46 -33 48 -25 54 32 25 28 -14 84 -34 122 -43z m2015 45 c0 -9 -12 -21 -26
-27 -21 -10 -31 -9 -52 2 -46 27 -39 40 22 40 43 0 56 -3 56 -15z m-3170 -24
c0 -18 131 -183 211 -266 92 -95 104 -130 26 -76 -63 43 -150 131 -195 198
-51 75 -84 141 -77 153 6 10 35 2 35 -9z m348 -5 c6 -13 25 -40 42 -60 l32
-36 -29 0 c-49 0 -73 25 -73 76 0 49 11 57 28 20z m351 -44 l30 -38 -29 -50
c-45 -80 -52 -83 -105 -40 -25 21 -45 40 -45 44 0 11 101 122 110 122 5 0 22
-17 39 -38z m-744 -70 c49 -84 169 -218 255 -284 l35 -26 -47 -48 c-43 -43
-49 -47 -71 -37 -43 20 -156 133 -193 194 -23 39 -42 59 -55 59 -69 0 58 -186
196 -287 l30 -21 -37 -16 c-49 -21 -76 -20 -116 4 -42 26 -86 116 -103 211
-12 70 -25 92 -39 69 -12 -19 19 -157 49 -224 32 -70 76 -112 127 -122 28 -5
48 0 99 26 l63 32 49 -18 c64 -23 71 -31 47 -49 -56 -44 -99 -59 -174 -59 -93
0 -155 25 -222 91 -111 110 -147 319 -76 456 23 45 105 137 122 137 6 -1 34
-40 61 -88z m995 -13 c0 -5 -11 -21 -25 -36 l-24 -28 -1 69 0 70 25 -34 c14
-19 25 -37 25 -41z m874 9 c-35 -70 -81 -118 -113 -118 -36 0 -141 67 -141 89
0 3 33 6 73 6 58 1 82 6 124 28 28 14 54 31 58 37 3 5 10 10 16 10 5 0 -2 -24
-17 -52z m-964 -32 c0 -66 -3 -77 -22 -90 -12 -9 -37 -16 -54 -16 l-33 0 35
57 c19 31 34 60 34 64 0 4 4 19 10 33 18 48 30 28 30 -48z m1331 -24 c-17 -31
-83 -86 -130 -107 -43 -19 -43 -19 -58 0 -13 19 -11 21 39 43 29 13 60 30 68
37 17 16 71 45 83 45 4 0 3 -8 -2 -18z m-1065 -29 c27 -14 50 -27 52 -29 2 -1
-13 -24 -32 -52 l-36 -49 -62 11 c-39 8 -62 17 -61 24 2 9 84 122 89 122 1 0
23 -12 50 -27z m419 -51 c-19 -4 -45 15 -45 35 0 10 8 7 31 -9 24 -18 27 -24
14 -26z m-1186 -22 c-17 -23 -26 -27 -36 -19 -20 17 -16 26 15 37 42 16 44 14
21 -18z m940 9 c50 -11 58 -25 25 -42 -49 -25 -111 -40 -138 -33 l-25 6 31 45
c26 36 36 44 52 39 12 -4 36 -11 55 -15z m-788 -34 c39 -24 77 -46 83 -48 18
-6 -22 -56 -59 -74 -33 -16 -34 -16 -82 20 -27 19 -57 44 -67 55 -17 20 -17
22 11 56 15 20 31 36 35 36 3 0 39 -20 79 -45z m1439 -6 c0 -6 -4 -7 -10 -4
-5 3 -10 11 -10 16 0 6 5 7 10 4 6 -3 10 -11 10 -16z m-290 -54 c281 -18 295
-20 295 -35 0 -22 -88 -75 -165 -100 -100 -32 -193 -26 -280 18 -67 33 -127
79 -116 89 9 10 150 41 166 37 9 -2 54 -6 100 -9z m-1304 -36 c19 -21 19 -21
-9 -8 -15 7 -27 16 -27 21 0 14 16 9 36 -13z m466 -28 c12 -10 -94 -131 -113
-131 -28 0 -33 20 -11 43 11 12 29 41 41 65 19 38 24 42 49 36 15 -4 30 -10
34 -13z m434 -17 c-25 -37 -75 -56 -117 -44 -44 13 -65 27 -55 37 7 8 178 41
185 36 2 -1 -4 -14 -13 -29z m869 -75 c85 -166 62 -306 -57 -354 -58 -23 -181
-30 -261 -15 l-66 12 -22 67 c-11 36 -36 94 -55 128 l-33 63 27 6 c117 25 221
67 304 121 21 14 44 23 53 19 10 -3 15 0 15 11 0 9 8 22 18 29 21 16 29 7 77
-87z m-1645 -9 c84 -27 85 -27 55 -39 -53 -22 -166 -25 -246 -7 -106 24 -106
24 -56 83 l42 50 60 -30 c33 -17 98 -42 145 -57z m380 0 c0 -70 -8 -77 -64
-57 l-38 13 44 52 c23 28 46 52 51 52 4 0 7 -27 7 -60z m135 -80 c3 -5 -1 -10
-9 -10 -9 0 -16 5 -16 10 0 6 4 10 9 10 6 0 13 -4 16 -10z m646 -134 c27 -56
45 -102 39 -104 -19 -7 -155 73 -151 88 1 8 6 38 10 65 14 103 31 96 102 -49z
m-147 67 c-3 -27 -10 -52 -15 -57 -11 -12 -49 21 -44 37 21 59 26 67 45 67 20
0 21 -4 14 -47z m-497 -3 c26 0 36 -6 48 -31 l16 -31 -66 -96 c-36 -54 -75
-108 -86 -122 l-20 -25 6 139 c7 154 15 181 48 172 12 -3 37 -6 54 -6z m446
-94 c24 -18 22 -23 -15 -46 -52 -31 -62 -26 -36 20 26 44 26 45 51 26z"/>
</g>
</svg>
