<?xml version="1.0" standalone="no"?>
<!DOCTYPE svg PUBLIC "-//W3C//DTD SVG 20010904//EN"
 "http://www.w3.org/TR/2001/REC-SVG-20010904/DTD/svg10.dtd">
<svg version="1.0" xmlns="http://www.w3.org/2000/svg"
 width="512.000000pt" height="512.000000pt" viewBox="0 0 512.000000 512.000000"
 preserveAspectRatio="xMidYMid meet">

<g transform="translate(0.000000,512.000000) scale(0.100000,-0.100000)"
fill="#494b57" stroke="none">
<path d="M363 5106 c-172 -42 -316 -190 -352 -364 -16 -75 -16 -4289 0 -4364
37 -178 189 -330 367 -367 75 -16 4289 -16 4364 0 178 37 330 189 367 367 16
75 16 4289 0 4364 -37 178 -189 330 -367 367 -81 17 -4309 14 -4379 -3z m2304
-1636 c97 -13 130 -31 155 -86 18 -42 19 -64 17 -367 -3 -292 -1 -326 15 -364
33 -79 71 -71 162 35 129 151 255 361 339 567 22 54 48 101 66 118 l30 28 330
-3 331 -3 25 -29 c31 -37 27 -77 -21 -181 -41 -88 -98 -174 -280 -420 -159
-215 -196 -276 -196 -323 0 -30 19 -53 178 -216 342 -351 408 -481 283 -559
-35 -21 -43 -22 -316 -21 -373 1 -346 -9 -560 209 -88 89 -178 174 -199 189
-48 32 -86 33 -114 3 -28 -29 -37 -61 -62 -205 -23 -131 -29 -146 -73 -169
-27 -15 -57 -18 -192 -17 -274 0 -462 58 -669 206 -206 146 -406 393 -621 768
-137 238 -335 652 -335 700 0 15 9 38 19 51 l19 24 276 -2 c352 -2 339 4 422
-193 88 -206 276 -509 360 -578 50 -42 72 -45 99 -18 39 39 50 119 49 356 -1
193 -3 220 -21 261 -23 52 -60 82 -121 98 -34 10 -42 16 -42 35 0 42 70 93
149 106 66 11 413 11 498 0z"/>
</g>
</svg>
